<svg version="1.1" viewBox="0 0 966 966" xmlns="http://www.w3.org/2000/svg">
  <defs><clipPath id="cc"><circle cx="483" cy="483" r="483"/></clipPath></defs>
  <g clip-path="url(#cc)">
    <circle cx="483" cy="483" r="483" fill="#1c2e3f"/>
    <g transform="translate(0 195.5)">
      <path fill="#487c89" fill-opacity="0.557" d="m575.2331 -0.0064929132l0 287.62204l-287.62204 -287.62204z" fill-rule="evenodd"/>
      <path fill="#db9340" fill-opacity="0.7089" d="m575.2349 575.2179l-287.62207 0l0 -287.55905l287.62207 0z" fill-rule="evenodd"/>
      <path fill="#487c89" d="m287.4439 -7.970725E-4l0 287.6124l-287.45026 -287.6124z" fill-rule="evenodd"/>
      <path fill="#487c89" d="m287.62408 -7.970725E-4l0 287.6124l-287.45026 -287.6124z" fill-rule="evenodd"/>
      <path fill="#365e6e" d="m287.61102 575.16986l0 -287.46454l287.62207 287.46454z" fill-rule="evenodd"/>
      <path fill="#db9340" fill-opacity="0.3843" d="m575.23474 575.2492l0 -287.622l287.622 287.622z" fill-rule="evenodd"/>
      <path fill="#db9340" fill-opacity="0.3843" d="m675.0927 575.24976l0 -287.62204l287.622 287.62204z" fill-rule="evenodd"/>
      <path fill="#365e6e" d="m-0.0017784777 287.61642l0 -287.62204l287.62204 287.62204z" fill-rule="evenodd"/>
      <path fill="#1e2c39" d="m-0.019042782 287.6116l287.65353 0l0 287.65353l-287.65353 0z" fill-rule="evenodd"/>
      <path fill="#487c89" fill-opacity="0.298" d="m862.85516 -0.0064929132l0 287.62204l-287.62207 -287.62204z" fill-rule="evenodd"/>
    </g>
    <g transform="matrix(4.0 0 0 4.0 -2183.043334 -1388.69851)"><path fill="#ffffff" fill-rule="nonzero" d="M 618.058531,501.034 L 618.058531,391.768375 L 635.621031,392.159 L 586.777281,452.00275 L 582.152281,446.205875 L 671.730406,446.205875 L 671.730406,473.237125 L 567.480406,473.237125 L 554.355406,447.94025 L 623.261656,364.737125 L 649.714781,364.737125 L 649.714781,501.034005 L 618.058531,501.034005 L 618.058531,501.034 M 686.0100110000001,501.034 L 679.6350110000001,485.205875 L 719.0256360000001,442.159 Q 722.3068860000001,438.487125 726.1662610000001,433.862125 Q 730.0256360000001,429.2215 733.6818860000001,424.299625 Q 737.3537610000001,419.37775 739.5725110000001,414.75275 Q 741.8068860000001,410.112125 741.8068860000001,406.25275 Q 741.8068860000001,402.393375 740.0568860000001,399.50275 Q 738.3225110000001,396.5965 735.0412610000001,394.955875 Q 731.7600110000001,393.31525 726.7443860000001,393.31525 Q 722.3068860000001,393.31525 718.2443860000001,395.534 Q 714.1975110000001,397.75275 710.6193860000001,402.393375 Q 707.0568860000001,407.018375 703.9631360000001,413.784 L 679.6350110000001,400.643375 Q 683.6975110000001,389.455875 691.1193860000001,380.862125 Q 698.5568860000001,372.268375 708.5881360000001,367.549625 Q 718.6350110000001,362.81525 730.0256360000001,362.81525 Q 741.9943860000001,363.00275 751.6350110000001,367.924625 Q 761.2912610000001,372.8465 766.9787610000001,381.643375 Q 772.6818860000001,390.424625 772.6818860000001,402.19025 Q 772.6818860000001,406.25275 771.7131360000001,410.69025 Q 770.7600110000001,415.12775 768.8225110000001,419.862125 Q 766.9006360000001,424.580875 763.7131360000001,429.893375 Q 760.5256360000001,435.205875 756.0881360000001,441.00275 Q 751.6506360000001,446.784 745.6662610000001,453.3465 L 714.9631360000001,486.75275 L 711.1037610000001,472.080875 L 778.6662610000001,472.080875 L 778.6662610000001,501.034 L 686.0100110000001,501.034"/></g>
  </g>
</svg>
