<svg version="1.1" viewBox="0 0 966 966" xmlns="http://www.w3.org/2000/svg">
  <defs><clipPath id="circle-clip"><circle cx="483" cy="483" r="483"/></clipPath></defs>
  <g clip-path="url(#circle-clip)">
    <circle cx="483" cy="483" r="483" fill="#1c2e3f"/>
    <g transform="translate(0 195.5)">
      <path fill="#487c89" fill-opacity="0.557" d="m575.2331 -0.0064929132l0 287.62204l-287.62204 -287.62204z" fill-rule="evenodd"/>
      <path fill="#db9340" fill-opacity="0.7089" d="m575.2349 575.2179l-287.62207 0l0 -287.55905l287.62207 0z" fill-rule="evenodd"/>
      <path fill="#487c89" d="m287.4439 -7.970725E-4l0 287.6124l-287.45026 -287.6124z" fill-rule="evenodd"/>
      <path fill="#487c89" d="m287.62408 -7.970725E-4l0 287.6124l-287.45026 -287.6124z" fill-rule="evenodd"/>
      <path fill="#365e6e" d="m287.61102 575.16986l0 -287.46454l287.62207 287.46454z" fill-rule="evenodd"/>
      <path fill="#db9340" fill-opacity="0.3843" d="m575.23474 575.2492l0 -287.622l287.622 287.622z" fill-rule="evenodd"/>
      <path fill="#db9340" fill-opacity="0.3843" d="m675.0927 575.24976l0 -287.62204l287.622 287.62204z" fill-rule="evenodd"/>
      <path fill="#365e6e" d="m-0.0017784777 287.61642l0 -287.62204l287.62204 287.62204z" fill-rule="evenodd"/>
      <path fill="#1e2c39" d="m-0.019042782 287.6116l287.65353 0l0 287.65353l-287.65353 0z" fill-rule="evenodd"/>
      <path fill="#487c89" fill-opacity="0.298" d="m862.85516 -0.0064929132l0 287.62204l-287.62207 -287.62204z" fill-rule="evenodd"/>
    </g>
    <g transform="matrix(1.4 0 0 1.4 80.7941585358871 -263.802284)"><path fill="#ffffff" fill-rule="nonzero" d="M 87.763596,502.9715 Q 74.435471,502.9715 63.71672500000001,499.784 Q 53.01360000000001,496.5965 44.70110000000001,490.518375 Q 36.40422500000001,484.424625 29.84172500000001,476.12775 L 49.73235000000001,453.549625 Q 59.37297500000001,466.4715 69.122971,470.924625 Q 78.872971,475.362125 89.294846,475.362125 Q 94.513596,475.362125 98.763596,474.018375 Q 103.013596,472.659 105.326096,470.049625 Q 107.638596,467.44025 107.638596,463.580875 Q 107.638596,460.69025 106.185471,458.37775 Q 104.747971,456.049625 102.232346,454.31525 Q 99.732346,452.580875 96.247971,451.143375 Q 92.779221,449.69025 88.919846,448.62775 Q 85.060471,447.56525 80.997971,446.784 Q 69.810471,444.284 61.49797500000001,440.612125 Q 53.20110000000001,436.94025 47.70110000000001,431.643375 Q 42.20110000000001,426.330875 39.49797500000001,419.4715 Q 36.79485000000001,412.612125 36.79485000000001,404.12775 Q 36.79485000000001,395.049625 40.93547500000001,387.424625 Q 45.09172500000001,379.799625 52.13860000000001,374.299625 Q 59.18547500000001,368.799625 68.451096,365.81525 Q 77.716721,362.81525 87.763596,362.81525 Q 101.076096,362.81525 110.622971,365.612125 Q 120.185471,368.409 127.029221,373.62775 Q 133.888596,378.830875 138.716721,386.174625 L 118.451096,405.674625 Q 114.404221,400.643375 109.669846,397.362125 Q 104.935471,394.080875 99.622971,392.3465 Q 94.326096,390.612125 88.716721,390.612125 Q 82.935471,390.612125 78.779221,392.06525 Q 74.622971,393.50275 72.310471,396.112125 Q 69.997971,398.7215 69.997971,402.393375 Q 69.997971,405.674625 71.919846,407.987125 Q 73.857346,410.299625 77.138596,412.143375 Q 80.419846,413.9715 84.669846,415.237125 Q 88.919846,416.487125 93.544846,417.25275 Q 104.169846,419.37775 112.747971,422.862125 Q 121.341721,426.330875 127.607346,431.3465 Q 133.888596,436.362125 137.263596,443.2215 Q 140.654221,450.06525 140.654221,459.143375 Q 140.654221,473.237125 133.794846,482.987125 Q 126.951096,492.737125 115.076096,497.862125 Q 103.201096,502.9715 87.763596,502.9715 M 207.06152600000001,502.9715 Q 192.20215100000001,502.9715 180.42090100000001,496.018375 Q 168.63965100000001,489.06525 161.78027600000001,477.00275 Q 154.93652600000001,464.94025 154.93652600000001,449.69025 Q 154.93652600000001,434.44025 161.78027600000001,422.37775 Q 168.63965100000001,410.299625 180.42090100000001,403.362125 Q 192.20215100000001,396.409 207.06152600000001,396.409 Q 220.76465100000001,396.409 232.24902600000001,401.237125 Q 243.73340100000001,406.049625 250.49902600000001,414.737125 L 233.70215100000001,434.81525 Q 230.99902600000001,431.737125 227.32715100000001,429.034 Q 223.65527600000001,426.330875 219.21777600000001,424.784 Q 214.78027600000001,423.237125 209.95215100000001,423.237125 Q 202.62402600000001,423.237125 197.01465100000001,426.612125 Q 191.42090100000001,429.987125 188.32715100000001,435.9715 Q 185.24902600000001,441.955875 185.24902600000001,449.69025 Q 185.24902600000001,457.018375 188.43652600000001,463.00275 Q 191.62402600000001,468.987125 197.21777600000001,472.4715 Q 202.81152600000001,475.94025 209.95215100000001,475.94025 Q 214.96777600000001,475.94025 219.21777600000001,474.69025 Q 223.46777600000001,473.424625 227.03027600000001,470.924625 Q 230.60840100000001,468.409 233.70215100000001,464.737125 L 250.29590100000001,485.018375 Q 243.73340100000001,493.31525 232.04590100000001,498.143375 Q 220.37402600000001,502.9715 207.06152600000001,502.9715 M 305.131411,502.768375 Q 292.193911,502.768375 282.053286,495.924625 Q 271.928286,489.06525 265.943911,477.00275 Q 259.959536,464.94025 259.959536,449.69025 Q 259.959536,434.049625 265.943911,422.080875 Q 271.928286,410.112125 282.350161,403.268375 Q 292.772036,396.409 306.100161,396.409 Q 313.428286,396.409 319.506411,398.534 Q 325.584536,400.643375 330.209536,404.409 Q 334.850161,408.174625 338.131411,413.0965 Q 341.428286,418.018375 342.959536,423.62775 L 336.600161,422.8465 L 336.600161,398.518375 L 367.287661,398.518375 L 367.287661,501.034 L 336.022036,501.034 L 336.022036,476.330875 L 342.959536,476.12775 Q 341.428286,481.534 337.943911,486.362125 Q 334.475161,491.19025 329.443911,494.862125 Q 324.428286,498.518375 318.256411,500.643375 Q 312.084536,502.768375 305.131411,502.768375 M 313.615786,476.705875 Q 320.772036,476.705875 325.975161,473.424625 Q 331.193911,470.143375 334.084536,464.06525 Q 336.975161,457.987125 336.975161,449.69025 Q 336.975161,441.37775 334.084536,435.299625 Q 331.193911,429.2215 325.975161,425.8465 Q 320.772036,422.4715 313.615786,422.4715 Q 306.678286,422.4715 301.553286,425.8465 Q 296.443911,429.2215 293.537661,435.299625 Q 290.647036,441.37775 290.647036,449.69025 Q 290.647036,457.987125 293.537661,464.06525 Q 296.443911,470.143375 301.553286,473.424625 Q 306.678286,476.705875 313.615786,476.705875 M 394.70865100000003,501.034 L 394.70865100000003,358.17462 L 425.58365100000003,358.17462 L 425.58365100000003,501.034 L 394.70865100000003,501.034 M 500.104951,502.9715 Q 483.120576,502.9715 470.573701,496.112125 Q 458.026826,489.25275 451.073701,477.393375 Q 444.120576,465.518375 444.120576,450.268375 Q 444.120576,438.487125 447.979951,428.643375 Q 451.839326,418.799625 458.792451,411.56525 Q 465.745576,404.31525 475.292451,400.362125 Q 484.854951,396.409 496.245576,396.409 Q 507.058076,396.409 516.026796,400.268375 Q 525.011171,404.12775 531.573671,411.080875 Q 538.136171,418.018375 541.604921,427.487125 Q 545.089296,436.94025 544.698671,448.143375 L 544.511171,456.44025 L 462.85495099999997,456.44025 L 458.40182599999997,439.06525 L 519.41742,439.06525 L 516.120545,442.737125 L 516.120545,438.87775 Q 515.745545,434.049625 513.13617,430.284 Q 510.5268255,426.518375 506.2768255,424.393375 Q 502.0424505,422.268375 496.6362005,422.268375 Q 489.1049505,422.268375 483.7924505,425.268375 Q 478.4799505,428.25275 475.7768255,433.955875 Q 473.0737005,439.643375 473.0737005,447.94025 Q 473.0737005,456.44025 476.6362005,462.7215 Q 480.2143255,468.987125 487.0737005,472.4715 Q 493.9330755,475.94025 503.3862005,475.94025 Q 509.9487005,475.94025 515.058045,474.018375 Q 520.183045,472.080875 526.16742,467.44025 L 540.651795,487.909 Q 534.66742,493.112125 527.901795,496.409 Q 521.151795,499.69025 514.10492,501.330875 Q 507.0580755,502.9715 500.1049505,502.9715 L 500.104951,502.9715"/></g>
  <g transform="matrix(1.4 0 0 1.4 -450.11516689999996 22.305521500000054)"><path fill="#ffffff" fill-rule="nonzero" d="M 618.058531,501.034 L 618.058531,391.768375 L 635.621031,392.159 L 586.777281,452.00275 L 582.152281,446.205875 L 671.730406,446.205875 L 671.730406,473.237125 L 567.480406,473.237125 L 554.355406,447.94025 L 623.261656,364.737125 L 649.714781,364.737125 L 649.714781,501.034005 L 618.058531,501.034005 L 618.058531,501.034 M 686.0100110000001,501.034 L 679.6350110000001,485.205875 L 719.0256360000001,442.159 Q 722.3068860000001,438.487125 726.1662610000001,433.862125 Q 730.0256360000001,429.2215 733.6818860000001,424.299625 Q 737.3537610000001,419.37775 739.5725110000001,414.75275 Q 741.8068860000001,410.112125 741.8068860000001,406.25275 Q 741.8068860000001,402.393375 740.0568860000001,399.50275 Q 738.3225110000001,396.5965 735.0412610000001,394.955875 Q 731.7600110000001,393.31525 726.7443860000001,393.31525 Q 722.3068860000001,393.31525 718.2443860000001,395.534 Q 714.1975110000001,397.75275 710.6193860000001,402.393375 Q 707.0568860000001,407.018375 703.9631360000001,413.784 L 679.6350110000001,400.643375 Q 683.6975110000001,389.455875 691.1193860000001,380.862125 Q 698.5568860000001,372.268375 708.5881360000001,367.549625 Q 718.6350110000001,362.81525 730.0256360000001,362.81525 Q 741.9943860000001,363.00275 751.6350110000001,367.924625 Q 761.2912610000001,372.8465 766.9787610000001,381.643375 Q 772.6818860000001,390.424625 772.6818860000001,402.19025 Q 772.6818860000001,406.25275 771.7131360000001,410.69025 Q 770.7600110000001,415.12775 768.8225110000001,419.862125 Q 766.9006360000001,424.580875 763.7131360000001,429.893375 Q 760.5256360000001,435.205875 756.0881360000001,441.00275 Q 751.6506360000001,446.784 745.6662610000001,453.3465 L 714.9631360000001,486.75275 L 711.1037610000001,472.080875 L 778.6662610000001,472.080875 L 778.6662610000001,501.034 L 686.0100110000001,501.034"/></g>
  </g>
</svg>
