<svg version="1.1" viewBox="0 0 966 966" xmlns="http://www.w3.org/2000/svg">
  <defs>
    <clipPath id="circle-clip">
      <circle cx="483" cy="483" r="483"/>
    </clipPath>
  </defs>
  <g clip-path="url(#circle-clip)">
    <rect width="966" height="966" fill="#ffffff"/>
    <g transform="translate(0 195.5)">
      <path fill="#487c89" fill-opacity="0.557" d="m575.2331 -0.0064929132l0 287.62204l-287.62204 -287.62204z" fill-rule="evenodd"/>
      <path fill="#db9340" fill-opacity="0.7089" d="m575.2349 575.2179l-287.62207 0l0 -287.55905l287.62207 0z" fill-rule="evenodd"/>
      <path fill="#487c89" d="m287.4439 -7.970725E-4l0 287.6124l-287.45026 -287.6124z" fill-rule="evenodd"/>
      <path fill="#487c89" d="m287.62408 -7.970725E-4l0 287.6124l-287.45026 -287.6124z" fill-rule="evenodd"/>
      <path fill="#365e6e" d="m287.61102 575.16986l0 -287.46454l287.62207 287.46454z" fill-rule="evenodd"/>
      <path fill="#db9340" fill-opacity="0.3843" d="m575.23474 575.2492l0 -287.622l287.622 287.622z" fill-rule="evenodd"/>
      <path fill="#db9340" fill-opacity="0.3843" d="m675.0927 575.24976l0 -287.62204l287.622 287.62204z" fill-rule="evenodd"/>
      <path fill="#365e6e" d="m-0.0017784777 287.61642l0 -287.62204l287.62204 287.62204z" fill-rule="evenodd"/>
      <path fill="#1e2c39" d="m-0.019042782 287.6116l287.65353 0l0 287.65353l-287.65353 0z" fill-rule="evenodd"/>
      <path fill="#ffffff" fill-rule="nonzero" d="m87.763596 502.9715q-13.328125 0 -24.046871 -3.1875q-10.703125 -3.1875 -19.015625 -9.265625q-8.296875 -6.09375 -14.859375 -14.390625l19.890625 -22.578125q9.640625 12.921875 19.390621 17.375q9.75 4.4375 20.171875 4.4375q5.21875 0 9.46875 -1.34375q4.25 -1.359375 6.5625 -3.96875q2.3125 -2.609375 2.3125 -6.46875q0 -2.890625 -1.453125 -5.203125q-1.4375 -2.328125 -3.953125 -4.0625q-2.5 -1.734375 -5.984375 -3.171875q-3.46875 -1.453125 -7.328125 -2.515625q-3.859375 -1.0625 -7.921875 -1.84375q-11.1875 -2.5 -19.499996 -6.171875q-8.296875 -3.671875 -13.796875 -8.96875q-5.5 -5.3125 -8.203125 -12.171875q-2.703125 -6.859375 -2.703125 -15.34375q0 -9.078125 4.140625 -16.703125q4.15625 -7.625 11.203125 -13.125q7.046875 -5.5 16.312496 -8.484375q9.265625 -3.0 19.3125 -3.0q13.3125 0 22.859375 2.796875q9.5625 2.796875 16.40625 8.015625q6.859375 5.203125 11.6875 12.546875l-20.265625 19.5q-4.046875 -5.03125 -8.78125 -8.3125q-4.734375 -3.28125 -10.046875 -5.015625q-5.296875 -1.734375 -10.90625 -1.734375q-5.78125 0 -9.9375 1.453125q-4.15625 1.4375 -6.46875 4.046875q-2.3125 2.609375 -2.3125 6.28125q0 3.28125 1.921875 5.59375q1.9375 2.3125 5.21875 4.15625q3.28125 1.828125 7.53125 3.09375q4.25 1.25 8.875 2.015625q10.625 2.125 19.203125 5.609375q8.59375 3.46875 14.859375 8.484375q6.28125 5.015625 9.65625 11.875q3.390625 6.84375 3.390625 15.921875q0 14.09375 -6.859375 23.84375q-6.84375 9.75 -18.71875 14.875q-11.875 5.109375 -27.3125 5.109375zm119.29793 0q-14.859375 0 -26.640625 -6.953125q-11.78125 -6.953125 -18.640625 -19.015625q-6.84375 -12.0625 -6.84375 -27.3125q0 -15.25 6.84375 -27.3125q6.859375 -12.078125 18.640625 -19.015625q11.78125 -6.953125 26.640625 -6.953125q13.703125 0 25.1875 4.828125q11.484375 4.8125 18.25 13.5l-16.796875 20.078125q-2.703125 -3.078125 -6.375 -5.78125q-3.671875 -2.703125 -8.109375 -4.25q-4.4375 -1.546875 -9.265625 -1.546875q-7.328125 0 -12.9375 3.375q-5.59375 3.375 -8.6875 9.359375q-3.078125 5.984375 -3.078125 13.71875q0 7.328125 3.1875 13.3125q3.1875 5.984375 8.78125 9.46875q5.59375 3.46875 12.734375 3.46875q5.015625 0 9.265625 -1.25q4.25 -1.265625 7.8125 -3.765625q3.578125 -2.515625 6.671875 -6.1875l16.59375 20.28125q-6.5625 8.296875 -18.25 13.125q-11.671875 4.828125 -24.984375 4.828125zm98.069885 -0.203125q-12.9375 0 -23.078125 -6.84375q-10.125 -6.859375 -16.109375 -18.921875q-5.984375 -12.0625 -5.984375 -27.3125q0 -15.640625 5.984375 -27.609375q5.984375 -11.96875 16.40625 -18.8125q10.421875 -6.859375 23.75 -6.859375q7.328125 0 13.40625 2.125q6.078125 2.109375 10.703125 5.875q4.640625 3.765625 7.921875 8.6875q3.296875 4.921875 4.828125 10.53125l-6.359375 -0.78125l0 -24.328125l30.6875 0l0 102.515625l-31.265625 0l0 -24.703125l6.9375 -0.203125q-1.53125 5.40625 -5.015625 10.234375q-3.46875 4.828125 -8.5 8.5q-5.015625 3.65625 -11.1875 5.78125q-6.171875 2.125 -13.125 2.125zm8.484375 -26.0625q7.15625 0 12.359375 -3.28125q5.21875 -3.28125 8.109375 -9.359375q2.890625 -6.078125 2.890625 -14.375q0 -8.3125 -2.890625 -14.390625q-2.890625 -6.078125 -8.109375 -9.453125q-5.203125 -3.375 -12.359375 -3.375q-6.9375 0 -12.0625 3.375q-5.109375 3.375 -8.015625 9.453125q-2.890625 6.078125 -2.890625 14.390625q0 8.296875 2.890625 14.375q2.90625 6.078125 8.015625 9.359375q5.125 3.28125 12.0625 3.28125zm81.092865 24.328125l0 -142.85938l30.875 0l0 142.85938l-30.875 0zm105.3963 1.9375q-16.984375 0 -29.53125 -6.859375q-12.546875 -6.859375 -19.5 -18.71875q-6.953125 -11.875 -6.953125 -27.125q0 -11.78125 3.859375 -21.625q3.859375 -9.84375 10.8125 -17.078125q6.953125 -7.25 16.5 -11.203125q9.5625 -3.953125 20.953125 -3.953125q10.8125 0 19.78122 3.859375q8.984375 3.859375 15.546875 10.8125q6.5625 6.9375 10.03125 16.40625q3.484375 9.453125 3.09375 20.65625l-0.1875 8.296875l-81.65622 0l-4.453125 -17.375l61.015594 0l-3.296875 3.671875l0 -3.859375q-0.375 -4.828125 -2.984375 -8.59375q-2.6093445 -3.765625 -6.8593445 -5.890625q-4.234375 -2.125 -9.640625 -2.125q-7.53125 0 -12.84375 3.0q-5.3125 2.984375 -8.015625 8.6875q-2.703125 5.6875 -2.703125 13.984375q0 8.5 3.5625 14.78125q3.578125 6.265625 10.4375 9.75q6.859375 3.46875 16.3125 3.46875q6.5625 0 11.6718445 -1.921875q5.125 -1.9375 11.109375 -6.578125l14.484375 20.46875q-5.984375 5.203125 -12.75 8.5q-6.75 3.28125 -13.796875 4.921875q-7.0468445 1.640625 -13.9999695 1.640625zm117.95358 -1.9375l0 -109.265625l17.5625 0.390625l-48.84375 59.84375l-4.625 -5.796875l89.578125 0l0 27.03125l-104.25 0l-13.125 -25.296875l68.90625 -83.203125l26.453125 0l0 136.29688l-31.65625 0zm67.95148 0l-6.375 -15.828125l39.390625 -43.046875q3.28125 -3.671875 7.140625 -8.296875q3.859375 -4.640625 7.515625 -9.5625q3.671875 -4.921875 5.890625 -9.546875q2.234375 -4.640625 2.234375 -8.5q0 -3.859375 -1.75 -6.75q-1.734375 -2.90625 -5.015625 -4.546875q-3.28125 -1.640625 -8.296875 -1.640625q-4.4375 0 -8.5 2.21875q-4.046875 2.21875 -7.625 6.859375q-3.5625 4.625 -6.65625 11.390625l-24.328125 -13.140625q4.0625 -11.1875 11.484375 -19.78125q7.4375 -8.59375 17.46875 -13.3125q10.046875 -4.734375 21.4375 -4.734375q11.96875 0.1875 21.609375 5.109375q9.65625 4.921875 15.34375 13.71875q5.703125 8.78125 5.703125 20.546875q0 4.0625 -0.96875 8.5q-0.953125 4.4375 -2.890625 9.171875q-1.921875 4.71875 -5.109375 10.03125q-3.1875 5.3125 -7.625 11.109375q-4.4375 5.78125 -10.421875 12.34375l-30.703125 33.40625l-3.859375 -14.671875l67.5625 0l0 28.953125l-92.65625 0z"/>
      <path fill="#487c89" fill-opacity="0.298" d="m862.85516 -0.0064929132l0 287.62204l-287.62207 -287.62204z" fill-rule="evenodd"/>
    </g>
  </g>
</svg>
