<svg version="1.1" viewBox="0.0 0.0 966.1443569553805 575.6666666666666" fill="none" stroke="none" stroke-linecap="square" stroke-miterlimit="10" xmlns:xlink="http://www.w3.org/1999/xlink" xmlns="http://www.w3.org/2000/svg"><g><path fill="#487c89" fill-opacity="0.557" d="m575.2331 -0.0064929132l0 287.62204l-287.62204 -287.62204z" fill-rule="evenodd"/><path fill="#db9340" fill-opacity="0.7089" d="m575.2349 575.2179l-287.62207 0l0 -287.55905l287.62207 0z" fill-rule="evenodd"/><path fill="#487c89" d="m287.4439 -7.970725E-4l0 287.6124l-287.45026 -287.6124z" fill-rule="evenodd"/><path fill="#487c89" d="m287.62408 -7.970725E-4l0 287.6124l-287.45026 -287.6124z" fill-rule="evenodd"/><path fill="#365e6e" d="m287.61102 575.16986l0 -287.46454l287.62207 287.46454z" fill-rule="evenodd"/><path fill="#db9340" fill-opacity="0.3843" d="m575.23474 575.2492l0 -287.622l287.622 287.622z" fill-rule="evenodd"/><path fill="#db9340" fill-opacity="0.3843" d="m675.0927 575.24976l0 -287.62204l287.622 287.62204z" fill-rule="evenodd"/><path fill="#365e6e" d="m-0.0017784777 287.61642l0 -287.62204l287.62204 287.62204z" fill-rule="evenodd"/><path fill="#1e2c39" d="m-0.019042782 287.6116l287.65353 0l0 287.65353l-287.65353 0z" fill-rule="evenodd"/><path fill="#487c89" fill-opacity="0.298" d="m862.85516 -0.0064929132l0 287.62204l-287.62207 -287.62204z" fill-rule="evenodd"/></g></svg>
